<svg xmlns="http://www.w3.org/2000/svg" xmlns:cc="http://web.resource.org/cc/" xmlns:svg="http://www.w3.org/2000/svg" id="svg2" width="417.204" height="361.625" version="1.0"><metadata id="metadata7"/><g id="layer1" transform="translate(-101.54091,-163.59563)"><path style="fill:#5fd35f;fill-opacity:1;fill-rule:evenodd;stroke:none;stroke-width:1px;stroke-linecap:butt;stroke-linejoin:miter;stroke-opacity:1" id="path5075" d="M 508.74477,226.99015 C 459.42189,193.17234 436.08559,163.59563 436.08559,163.59563 C 344.99984,217.26626 248.26757,407.83719 248.26757,407.83719 C 202.93454,344.01939 157.35384,326.21932 157.35384,326.21932 C 136.86236,353.60112 101.54091,390.09316 101.54091,390.09316 C 183.924,412.28062 253.07323,493.70015 253.07323,493.70015 C 402.5571,259.01322 508.74477,226.99015 508.74477,226.99015 z"/><path style="opacity:.2;fill:#999;fill-opacity:1;stroke:none;stroke-width:1;stroke-miterlimit:4;stroke-dasharray:none;stroke-opacity:0" id="path3131" d="M 302.03011,528.36301 A 64.285713,7.1428571 0 1 1 301.97855,528.32818" transform="translate(8.5714285,-11.428571)"/><path style="opacity:.27777782;fill:#5fd35f;fill-opacity:1;fill-rule:evenodd;stroke:none;stroke-width:1px;stroke-linecap:butt;stroke-linejoin:miter;stroke-opacity:1" id="path2161" d="M 518.74479,227.27587 C 469.42191,193.45806 446.08561,163.88135 446.08561,163.88135 C 354.99986,217.55198 258.26759,408.12291 258.26759,408.12291 C 212.93456,344.30511 167.35386,326.50504 167.35386,326.50504 C 146.86238,353.88684 111.54093,390.37888 111.54093,390.37888 C 193.92402,412.56634 263.07325,493.98587 263.07325,493.98587 C 412.55712,259.29894 518.74479,227.27587 518.74479,227.27587 z"/></g></svg>